<mxfile host="app.diagrams.net" agent="Mozilla/5.0 (Windows NT 10.0; Win64; x64; rv:130.0) Gecko/20100101 Firefox/130.0" version="24.7.14">
  <diagram name="Page-1" id="_1J0e8jdBJVRewN6vP57">
    <mxGraphModel dx="989" dy="501" grid="1" gridSize="10" guides="1" tooltips="1" connect="1" arrows="1" fold="1" page="1" pageScale="1" pageWidth="1169" pageHeight="827" math="0" shadow="0">
      <root>
        <mxCell id="0" />
        <mxCell id="1" parent="0" />
        <mxCell id="hsY9H7-2oTvU6gEaKpXM-1" value="&lt;b&gt;&lt;font style=&quot;font-size: 14px;&quot;&gt;Constructor&lt;/font&gt;&lt;/b&gt;" style="rounded=0;whiteSpace=wrap;html=1;strokeWidth=2;fillColor=#dae8fc;strokeColor=#6c8ebf;" vertex="1" parent="1">
          <mxGeometry x="520" y="72" width="120" height="30" as="geometry" />
        </mxCell>
        <mxCell id="hsY9H7-2oTvU6gEaKpXM-2" value="&lt;b&gt;&lt;font style=&quot;font-size: 14px;&quot;&gt;Construction&lt;/font&gt;&lt;/b&gt;" style="rounded=0;whiteSpace=wrap;html=1;strokeWidth=2;fillColor=#dae8fc;strokeColor=#6c8ebf;" vertex="1" parent="1">
          <mxGeometry x="520" y="680" width="120" height="30" as="geometry" />
        </mxCell>
        <mxCell id="hsY9H7-2oTvU6gEaKpXM-3" value="&lt;font style=&quot;font-size: 14px;&quot;&gt;&lt;b&gt;TO &amp;amp; TL&lt;br&gt;&lt;/b&gt;&lt;/font&gt;" style="rounded=0;whiteSpace=wrap;html=1;strokeWidth=2;fillColor=#dae8fc;strokeColor=#6c8ebf;" vertex="1" parent="1">
          <mxGeometry x="520" y="450" width="120" height="30" as="geometry" />
        </mxCell>
        <mxCell id="hsY9H7-2oTvU6gEaKpXM-4" value="&lt;font size=&quot;1&quot;&gt;&lt;b style=&quot;font-size: 14px;&quot;&gt;TL&lt;/b&gt;&lt;/font&gt;" style="rounded=0;whiteSpace=wrap;html=1;strokeWidth=2;fillColor=#dae8fc;strokeColor=#6c8ebf;" vertex="1" parent="1">
          <mxGeometry x="880" y="250" width="120" height="30" as="geometry" />
        </mxCell>
        <mxCell id="hsY9H7-2oTvU6gEaKpXM-5" value="&lt;b&gt;&lt;font style=&quot;font-size: 14px;&quot;&gt;PMO&lt;/font&gt;&lt;/b&gt;" style="rounded=0;whiteSpace=wrap;html=1;strokeWidth=2;fillColor=#dae8fc;strokeColor=#6c8ebf;" vertex="1" parent="1">
          <mxGeometry x="520" y="250" width="120" height="30" as="geometry" />
        </mxCell>
        <mxCell id="hsY9H7-2oTvU6gEaKpXM-6" value="&lt;font size=&quot;1&quot;&gt;&lt;b style=&quot;font-size: 14px;&quot;&gt;TO&lt;/b&gt;&lt;/font&gt;" style="rounded=0;whiteSpace=wrap;html=1;strokeWidth=2;fillColor=#dae8fc;strokeColor=#6c8ebf;" vertex="1" parent="1">
          <mxGeometry x="160" y="250" width="120" height="30" as="geometry" />
        </mxCell>
        <mxCell id="hsY9H7-2oTvU6gEaKpXM-7" value="&lt;b&gt;&lt;font style=&quot;font-size: 14px;&quot;&gt;Submit&lt;/font&gt;&lt;/b&gt;" style="rhombus;whiteSpace=wrap;html=1;fillColor=#ffe6cc;strokeColor=#d79b00;strokeWidth=2;" vertex="1" parent="1">
          <mxGeometry x="520" y="148" width="120" height="40" as="geometry" />
        </mxCell>
        <mxCell id="hsY9H7-2oTvU6gEaKpXM-8" value="&lt;b&gt;&lt;font style=&quot;font-size: 14px;&quot;&gt;Transfer&lt;/font&gt;&lt;/b&gt;" style="rhombus;whiteSpace=wrap;html=1;fillColor=#ffe6cc;strokeColor=#d79b00;strokeWidth=2;" vertex="1" parent="1">
          <mxGeometry x="339.09" y="245" width="120" height="40" as="geometry" />
        </mxCell>
        <mxCell id="hsY9H7-2oTvU6gEaKpXM-9" value="&lt;b&gt;Use&lt;/b&gt;" style="rhombus;whiteSpace=wrap;html=1;fillColor=#ffe6cc;strokeColor=#d79b00;strokeWidth=2;" vertex="1" parent="1">
          <mxGeometry x="520" y="540" width="120" height="40" as="geometry" />
        </mxCell>
        <mxCell id="hsY9H7-2oTvU6gEaKpXM-11" value="&lt;b&gt;&lt;font style=&quot;font-size: 14px;&quot;&gt;Transfer&lt;/font&gt;&lt;/b&gt;" style="rhombus;whiteSpace=wrap;html=1;fillColor=#ffe6cc;strokeColor=#d79b00;strokeWidth=2;" vertex="1" parent="1">
          <mxGeometry x="700" y="245" width="120" height="40" as="geometry" />
        </mxCell>
        <mxCell id="hsY9H7-2oTvU6gEaKpXM-12" value="&lt;b&gt;&lt;font style=&quot;font-size: 14px;&quot;&gt;Form&lt;/font&gt;&lt;/b&gt;" style="rhombus;whiteSpace=wrap;html=1;fillColor=#ffe6cc;strokeColor=#d79b00;strokeWidth=2;" vertex="1" parent="1">
          <mxGeometry x="161" y="440" width="120" height="40" as="geometry" />
        </mxCell>
        <mxCell id="hsY9H7-2oTvU6gEaKpXM-13" value="&lt;b&gt;&lt;font style=&quot;font-size: 14px;&quot;&gt;Form&lt;/font&gt;&lt;/b&gt;" style="rhombus;whiteSpace=wrap;html=1;fillColor=#ffe6cc;strokeColor=#d79b00;strokeWidth=2;" vertex="1" parent="1">
          <mxGeometry x="880" y="440" width="120" height="40" as="geometry" />
        </mxCell>
        <mxCell id="hsY9H7-2oTvU6gEaKpXM-14" value="&lt;font style=&quot;font-size: 14px;&quot;&gt;Task_Name&lt;/font&gt;" style="ellipse;whiteSpace=wrap;html=1;strokeWidth=1;rotation=0;" vertex="1" parent="1">
          <mxGeometry x="320" y="62" width="120" height="30" as="geometry" />
        </mxCell>
        <mxCell id="hsY9H7-2oTvU6gEaKpXM-15" value="&lt;font style=&quot;font-size: 14px;&quot;&gt;Receiver&lt;/font&gt;" style="ellipse;whiteSpace=wrap;html=1;strokeWidth=1;rotation=0;" vertex="1" parent="1">
          <mxGeometry x="700" y="62" width="120" height="30" as="geometry" />
        </mxCell>
        <mxCell id="hsY9H7-2oTvU6gEaKpXM-16" value="&lt;font style=&quot;font-size: 14px;&quot;&gt;Document_ID&lt;/font&gt;" style="ellipse;whiteSpace=wrap;html=1;strokeWidth=1;" vertex="1" parent="1">
          <mxGeometry x="420" y="12" width="120" height="30" as="geometry" />
        </mxCell>
        <mxCell id="hsY9H7-2oTvU6gEaKpXM-17" value="&lt;font style=&quot;font-size: 14px;&quot;&gt;Submission_Date&lt;/font&gt;" style="ellipse;whiteSpace=wrap;html=1;strokeWidth=1;rotation=-1;" vertex="1" parent="1">
          <mxGeometry x="570" y="12" width="120" height="30" as="geometry" />
        </mxCell>
        <mxCell id="hsY9H7-2oTvU6gEaKpXM-21" value="" style="endArrow=none;html=1;rounded=0;exitX=0.5;exitY=0;exitDx=0;exitDy=0;strokeWidth=2;fillColor=#1ba1e2;strokeColor=#006EAF;entryX=0.5;entryY=1;entryDx=0;entryDy=0;" edge="1" parent="1" source="hsY9H7-2oTvU6gEaKpXM-7" target="hsY9H7-2oTvU6gEaKpXM-1">
          <mxGeometry width="50" height="50" relative="1" as="geometry">
            <mxPoint x="550" y="130" as="sourcePoint" />
            <mxPoint x="580" y="110" as="targetPoint" />
          </mxGeometry>
        </mxCell>
        <mxCell id="hsY9H7-2oTvU6gEaKpXM-22" value="" style="endArrow=none;html=1;rounded=0;exitX=0.5;exitY=0;exitDx=0;exitDy=0;strokeWidth=2;fillColor=#1ba1e2;strokeColor=#006EAF;entryX=0.5;entryY=1;entryDx=0;entryDy=0;" edge="1" parent="1" target="hsY9H7-2oTvU6gEaKpXM-7">
          <mxGeometry width="50" height="50" relative="1" as="geometry">
            <mxPoint x="579.5" y="250" as="sourcePoint" />
            <mxPoint x="579.5" y="190" as="targetPoint" />
          </mxGeometry>
        </mxCell>
        <mxCell id="hsY9H7-2oTvU6gEaKpXM-27" value="" style="endArrow=none;html=1;rounded=0;exitX=0.5;exitY=0;exitDx=0;exitDy=0;strokeWidth=2;fillColor=#1ba1e2;strokeColor=#006EAF;" edge="1" parent="1">
          <mxGeometry width="50" height="50" relative="1" as="geometry">
            <mxPoint x="579.5" y="540" as="sourcePoint" />
            <mxPoint x="579.5" y="480" as="targetPoint" />
          </mxGeometry>
        </mxCell>
        <mxCell id="hsY9H7-2oTvU6gEaKpXM-28" value="" style="endArrow=none;html=1;rounded=0;exitX=0.5;exitY=0;exitDx=0;exitDy=0;strokeWidth=2;fillColor=#1ba1e2;strokeColor=#006EAF;entryX=0.5;entryY=1;entryDx=0;entryDy=0;" edge="1" parent="1" source="hsY9H7-2oTvU6gEaKpXM-2" target="hsY9H7-2oTvU6gEaKpXM-9">
          <mxGeometry width="50" height="50" relative="1" as="geometry">
            <mxPoint x="579.5" y="680" as="sourcePoint" />
            <mxPoint x="579.5" y="620" as="targetPoint" />
          </mxGeometry>
        </mxCell>
        <mxCell id="hsY9H7-2oTvU6gEaKpXM-29" value="" style="endArrow=none;html=1;rounded=0;exitX=1;exitY=0.5;exitDx=0;exitDy=0;entryX=0;entryY=0.5;entryDx=0;entryDy=0;strokeWidth=2;fillColor=#1ba1e2;strokeColor=#006EAF;" edge="1" parent="1" source="hsY9H7-2oTvU6gEaKpXM-5" target="hsY9H7-2oTvU6gEaKpXM-11">
          <mxGeometry width="50" height="50" relative="1" as="geometry">
            <mxPoint x="650" y="310" as="sourcePoint" />
            <mxPoint x="700" y="260" as="targetPoint" />
          </mxGeometry>
        </mxCell>
        <mxCell id="hsY9H7-2oTvU6gEaKpXM-31" value="" style="endArrow=none;html=1;rounded=0;strokeWidth=2;fillColor=#1ba1e2;strokeColor=#006EAF;entryX=0;entryY=0.5;entryDx=0;entryDy=0;" edge="1" parent="1" target="hsY9H7-2oTvU6gEaKpXM-4">
          <mxGeometry width="50" height="50" relative="1" as="geometry">
            <mxPoint x="820" y="265" as="sourcePoint" />
            <mxPoint x="890" y="265" as="targetPoint" />
          </mxGeometry>
        </mxCell>
        <mxCell id="hsY9H7-2oTvU6gEaKpXM-34" value="" style="endArrow=none;html=1;rounded=0;exitX=1;exitY=0.5;exitDx=0;exitDy=0;entryX=0;entryY=0.5;entryDx=0;entryDy=0;strokeWidth=2;fillColor=#1ba1e2;strokeColor=#006EAF;" edge="1" parent="1" source="hsY9H7-2oTvU6gEaKpXM-8">
          <mxGeometry width="50" height="50" relative="1" as="geometry">
            <mxPoint x="460" y="264.5" as="sourcePoint" />
            <mxPoint x="520" y="264.5" as="targetPoint" />
          </mxGeometry>
        </mxCell>
        <mxCell id="hsY9H7-2oTvU6gEaKpXM-35" value="" style="endArrow=none;html=1;rounded=0;exitX=1;exitY=0.5;exitDx=0;exitDy=0;entryX=0;entryY=0.5;entryDx=0;entryDy=0;strokeWidth=2;fillColor=#1ba1e2;strokeColor=#006EAF;" edge="1" parent="1">
          <mxGeometry width="50" height="50" relative="1" as="geometry">
            <mxPoint x="280" y="265" as="sourcePoint" />
            <mxPoint x="340" y="264.5" as="targetPoint" />
          </mxGeometry>
        </mxCell>
        <mxCell id="hsY9H7-2oTvU6gEaKpXM-36" value="" style="endArrow=none;html=1;rounded=0;exitX=1;exitY=0.5;exitDx=0;exitDy=0;entryX=0;entryY=0.5;entryDx=0;entryDy=0;" edge="1" parent="1" source="hsY9H7-2oTvU6gEaKpXM-1" target="hsY9H7-2oTvU6gEaKpXM-15">
          <mxGeometry width="50" height="50" relative="1" as="geometry">
            <mxPoint x="650" y="122" as="sourcePoint" />
            <mxPoint x="700" y="72" as="targetPoint" />
          </mxGeometry>
        </mxCell>
        <mxCell id="hsY9H7-2oTvU6gEaKpXM-37" value="" style="endArrow=none;html=1;rounded=0;exitX=0.5;exitY=0;exitDx=0;exitDy=0;entryX=0.5;entryY=1;entryDx=0;entryDy=0;strokeWidth=2;fillColor=#1ba1e2;strokeColor=#006EAF;" edge="1" parent="1" source="hsY9H7-2oTvU6gEaKpXM-12" target="hsY9H7-2oTvU6gEaKpXM-6">
          <mxGeometry width="50" height="50" relative="1" as="geometry">
            <mxPoint x="190" y="365" as="sourcePoint" />
            <mxPoint x="250" y="364.5" as="targetPoint" />
          </mxGeometry>
        </mxCell>
        <mxCell id="hsY9H7-2oTvU6gEaKpXM-38" value="" style="endArrow=none;html=1;rounded=0;exitX=0.5;exitY=0;exitDx=0;exitDy=0;entryX=0.5;entryY=1;entryDx=0;entryDy=0;strokeWidth=2;fillColor=#1ba1e2;strokeColor=#006EAF;" edge="1" parent="1">
          <mxGeometry width="50" height="50" relative="1" as="geometry">
            <mxPoint x="940.5" y="440" as="sourcePoint" />
            <mxPoint x="939.5" y="280" as="targetPoint" />
          </mxGeometry>
        </mxCell>
        <mxCell id="hsY9H7-2oTvU6gEaKpXM-39" value="" style="endArrow=none;html=1;rounded=0;exitX=0;exitY=0.5;exitDx=0;exitDy=0;entryX=1;entryY=0.5;entryDx=0;entryDy=0;strokeWidth=2;fillColor=#1ba1e2;strokeColor=#006EAF;" edge="1" parent="1" source="hsY9H7-2oTvU6gEaKpXM-3" target="hsY9H7-2oTvU6gEaKpXM-12">
          <mxGeometry width="50" height="50" relative="1" as="geometry">
            <mxPoint x="361" y="580" as="sourcePoint" />
            <mxPoint x="360" y="420" as="targetPoint" />
          </mxGeometry>
        </mxCell>
        <mxCell id="hsY9H7-2oTvU6gEaKpXM-40" value="" style="endArrow=none;html=1;rounded=0;exitX=0;exitY=0.5;exitDx=0;exitDy=0;entryX=1;entryY=0.5;entryDx=0;entryDy=0;strokeWidth=2;fillColor=#1ba1e2;strokeColor=#006EAF;" edge="1" parent="1" source="hsY9H7-2oTvU6gEaKpXM-13">
          <mxGeometry width="50" height="50" relative="1" as="geometry">
            <mxPoint x="879" y="464.5" as="sourcePoint" />
            <mxPoint x="640" y="464.5" as="targetPoint" />
          </mxGeometry>
        </mxCell>
        <mxCell id="hsY9H7-2oTvU6gEaKpXM-41" value="" style="endArrow=none;html=1;rounded=0;exitX=1;exitY=0.5;exitDx=0;exitDy=0;entryX=0.375;entryY=0.972;entryDx=0;entryDy=0;entryPerimeter=0;" edge="1" parent="1" target="hsY9H7-2oTvU6gEaKpXM-17">
          <mxGeometry width="50" height="50" relative="1" as="geometry">
            <mxPoint x="580" y="72" as="sourcePoint" />
            <mxPoint x="640" y="62" as="targetPoint" />
          </mxGeometry>
        </mxCell>
        <mxCell id="hsY9H7-2oTvU6gEaKpXM-42" value="" style="endArrow=none;html=1;rounded=0;exitX=0.304;exitY=-0.029;exitDx=0;exitDy=0;entryX=0.775;entryY=0.905;entryDx=0;entryDy=0;entryPerimeter=0;exitPerimeter=0;" edge="1" parent="1" source="hsY9H7-2oTvU6gEaKpXM-1" target="hsY9H7-2oTvU6gEaKpXM-16">
          <mxGeometry width="50" height="50" relative="1" as="geometry">
            <mxPoint x="490" y="72" as="sourcePoint" />
            <mxPoint x="525" y="41" as="targetPoint" />
          </mxGeometry>
        </mxCell>
        <mxCell id="hsY9H7-2oTvU6gEaKpXM-43" value="" style="endArrow=none;html=1;rounded=0;exitX=0;exitY=0.5;exitDx=0;exitDy=0;entryX=1;entryY=0.5;entryDx=0;entryDy=0;" edge="1" parent="1" source="hsY9H7-2oTvU6gEaKpXM-1" target="hsY9H7-2oTvU6gEaKpXM-14">
          <mxGeometry width="50" height="50" relative="1" as="geometry">
            <mxPoint x="473" y="104" as="sourcePoint" />
            <mxPoint x="430" y="72" as="targetPoint" />
          </mxGeometry>
        </mxCell>
        <mxCell id="hsY9H7-2oTvU6gEaKpXM-46" value="&lt;font style=&quot;font-size: 14px;&quot;&gt;Receiver&lt;/font&gt;" style="ellipse;whiteSpace=wrap;html=1;strokeWidth=1;rotation=0;" vertex="1" parent="1">
          <mxGeometry x="630" y="310.00485981358287" width="120" height="30" as="geometry" />
        </mxCell>
        <mxCell id="hsY9H7-2oTvU6gEaKpXM-47" value="&lt;font style=&quot;font-size: 14px;&quot;&gt;Submission_Date&lt;/font&gt;" style="ellipse;whiteSpace=wrap;html=1;strokeWidth=1;rotation=-1;" vertex="1" parent="1">
          <mxGeometry x="600" y="190.0048598135829" width="120" height="30" as="geometry" />
        </mxCell>
        <mxCell id="hsY9H7-2oTvU6gEaKpXM-48" value="&lt;font style=&quot;font-size: 14px;&quot;&gt;Document_ID&lt;/font&gt;" style="ellipse;whiteSpace=wrap;html=1;strokeWidth=1;" vertex="1" parent="1">
          <mxGeometry x="430" y="190.0048598135829" width="120" height="30" as="geometry" />
        </mxCell>
        <mxCell id="hsY9H7-2oTvU6gEaKpXM-49" value="&lt;font style=&quot;font-size: 14px;&quot;&gt;Task_Name&lt;/font&gt;" style="ellipse;whiteSpace=wrap;html=1;strokeWidth=1;rotation=0;" vertex="1" parent="1">
          <mxGeometry x="410" y="310.00485981358287" width="120" height="30" as="geometry" />
        </mxCell>
        <mxCell id="hsY9H7-2oTvU6gEaKpXM-50" value="" style="endArrow=none;html=1;rounded=0;entryX=0.5;entryY=0;entryDx=0;entryDy=0;" edge="1" target="hsY9H7-2oTvU6gEaKpXM-49" parent="1">
          <mxGeometry width="50" height="50" relative="1" as="geometry">
            <mxPoint x="539" y="280" as="sourcePoint" />
            <mxPoint x="450" y="240.00485981358287" as="targetPoint" />
          </mxGeometry>
        </mxCell>
        <mxCell id="hsY9H7-2oTvU6gEaKpXM-51" value="" style="endArrow=none;html=1;rounded=0;exitX=0.375;exitY=-0.029;exitDx=0;exitDy=0;entryX=0.775;entryY=0.905;entryDx=0;entryDy=0;entryPerimeter=0;exitPerimeter=0;" edge="1" target="hsY9H7-2oTvU6gEaKpXM-48" parent="1" source="hsY9H7-2oTvU6gEaKpXM-5">
          <mxGeometry width="50" height="50" relative="1" as="geometry">
            <mxPoint x="576" y="239.00485981358287" as="sourcePoint" />
            <mxPoint x="545" y="209.0048598135829" as="targetPoint" />
          </mxGeometry>
        </mxCell>
        <mxCell id="hsY9H7-2oTvU6gEaKpXM-52" value="" style="endArrow=none;html=1;rounded=0;entryX=0.375;entryY=0.972;entryDx=0;entryDy=0;entryPerimeter=0;" edge="1" target="hsY9H7-2oTvU6gEaKpXM-47" parent="1">
          <mxGeometry width="50" height="50" relative="1" as="geometry">
            <mxPoint x="600" y="250" as="sourcePoint" />
            <mxPoint x="660" y="230.00485981358287" as="targetPoint" />
          </mxGeometry>
        </mxCell>
        <mxCell id="hsY9H7-2oTvU6gEaKpXM-53" value="" style="endArrow=none;html=1;rounded=0;exitX=0.75;exitY=1;exitDx=0;exitDy=0;entryX=0.377;entryY=0.028;entryDx=0;entryDy=0;entryPerimeter=0;" edge="1" target="hsY9H7-2oTvU6gEaKpXM-46" parent="1" source="hsY9H7-2oTvU6gEaKpXM-5">
          <mxGeometry width="50" height="50" relative="1" as="geometry">
            <mxPoint x="660" y="255.00485981358287" as="sourcePoint" />
            <mxPoint x="720" y="240.00485981358287" as="targetPoint" />
          </mxGeometry>
        </mxCell>
        <mxCell id="hsY9H7-2oTvU6gEaKpXM-54" value="&lt;font style=&quot;font-size: 14px;&quot;&gt;Document_ID&lt;/font&gt;" style="ellipse;whiteSpace=wrap;html=1;strokeWidth=1;rotation=-15;" vertex="1" parent="1">
          <mxGeometry x="101" y="113" width="110" height="30" as="geometry" />
        </mxCell>
        <mxCell id="hsY9H7-2oTvU6gEaKpXM-55" value="&lt;font style=&quot;font-size: 14px;&quot;&gt;Submission_Date&lt;/font&gt;" style="ellipse;whiteSpace=wrap;html=1;strokeWidth=1;rotation=15;" vertex="1" parent="1">
          <mxGeometry x="210" y="120.0048598135829" width="120" height="30" as="geometry" />
        </mxCell>
        <mxCell id="hsY9H7-2oTvU6gEaKpXM-56" value="&lt;font style=&quot;font-size: 14px;&quot;&gt;Task_Name&lt;/font&gt;" style="ellipse;whiteSpace=wrap;html=1;strokeWidth=1;rotation=-30;" vertex="1" parent="1">
          <mxGeometry x="8" y="155" width="100" height="30" as="geometry" />
        </mxCell>
        <mxCell id="hsY9H7-2oTvU6gEaKpXM-57" value="&lt;font style=&quot;font-size: 14px;&quot;&gt;Receiver&lt;/font&gt;" style="ellipse;whiteSpace=wrap;html=1;strokeWidth=1;rotation=50;" vertex="1" parent="1">
          <mxGeometry x="320" y="170" width="90" height="30" as="geometry" />
        </mxCell>
        <mxCell id="hsY9H7-2oTvU6gEaKpXM-58" value="" style="endArrow=none;html=1;rounded=0;exitX=0.88;exitY=0.029;exitDx=0;exitDy=0;exitPerimeter=0;" edge="1" target="hsY9H7-2oTvU6gEaKpXM-57" parent="1" source="hsY9H7-2oTvU6gEaKpXM-6">
          <mxGeometry width="50" height="50" relative="1" as="geometry">
            <mxPoint x="280" y="240" as="sourcePoint" />
            <mxPoint x="340" y="240.00485981358287" as="targetPoint" />
          </mxGeometry>
        </mxCell>
        <mxCell id="hsY9H7-2oTvU6gEaKpXM-59" value="" style="endArrow=none;html=1;rounded=0;entryX=0.375;entryY=0.972;entryDx=0;entryDy=0;entryPerimeter=0;" edge="1" target="hsY9H7-2oTvU6gEaKpXM-55" parent="1">
          <mxGeometry width="50" height="50" relative="1" as="geometry">
            <mxPoint x="220" y="249.99999999999994" as="sourcePoint" />
            <mxPoint x="280" y="230.00485981358287" as="targetPoint" />
          </mxGeometry>
        </mxCell>
        <mxCell id="hsY9H7-2oTvU6gEaKpXM-60" value="" style="endArrow=none;html=1;rounded=0;exitX=0.375;exitY=-0.029;exitDx=0;exitDy=0;entryX=0.5;entryY=1;entryDx=0;entryDy=0;exitPerimeter=0;" edge="1" target="hsY9H7-2oTvU6gEaKpXM-54" parent="1">
          <mxGeometry width="50" height="50" relative="1" as="geometry">
            <mxPoint x="185" y="248.99999999999994" as="sourcePoint" />
            <mxPoint x="165" y="209.0048598135829" as="targetPoint" />
          </mxGeometry>
        </mxCell>
        <mxCell id="hsY9H7-2oTvU6gEaKpXM-61" value="" style="endArrow=none;html=1;rounded=0;exitX=0;exitY=0;exitDx=0;exitDy=0;" edge="1" target="hsY9H7-2oTvU6gEaKpXM-56" parent="1" source="hsY9H7-2oTvU6gEaKpXM-6">
          <mxGeometry width="50" height="50" relative="1" as="geometry">
            <mxPoint x="159" y="279.99999999999994" as="sourcePoint" />
            <mxPoint x="100" y="230" as="targetPoint" />
          </mxGeometry>
        </mxCell>
        <mxCell id="hsY9H7-2oTvU6gEaKpXM-62" value="&lt;font style=&quot;font-size: 14px;&quot;&gt;Receiving_Date&lt;/font&gt;" style="ellipse;whiteSpace=wrap;html=1;strokeWidth=1;rotation=90;" vertex="1" parent="1">
          <mxGeometry x="-40" y="250.00485981358293" width="120" height="30" as="geometry" />
        </mxCell>
        <mxCell id="hsY9H7-2oTvU6gEaKpXM-63" value="" style="endArrow=none;html=1;rounded=0;entryX=0.537;entryY=0.002;entryDx=0;entryDy=0;entryPerimeter=0;exitX=0;exitY=1;exitDx=0;exitDy=0;" edge="1" parent="1" source="hsY9H7-2oTvU6gEaKpXM-6" target="hsY9H7-2oTvU6gEaKpXM-62">
          <mxGeometry width="50" height="50" relative="1" as="geometry">
            <mxPoint x="169" y="289.99999999999994" as="sourcePoint" />
            <mxPoint x="86" y="248" as="targetPoint" />
          </mxGeometry>
        </mxCell>
        <mxCell id="hsY9H7-2oTvU6gEaKpXM-64" value="&lt;font style=&quot;font-size: 14px;&quot;&gt;Comments&lt;/font&gt;" style="ellipse;whiteSpace=wrap;html=1;strokeWidth=1;rotation=30;" vertex="1" parent="1">
          <mxGeometry x="10.67" y="337.5" width="90" height="30" as="geometry" />
        </mxCell>
        <mxCell id="hsY9H7-2oTvU6gEaKpXM-65" value="" style="endArrow=none;html=1;rounded=0;entryX=0.584;entryY=-0.019;entryDx=0;entryDy=0;entryPerimeter=0;exitX=0.156;exitY=1;exitDx=0;exitDy=0;exitPerimeter=0;" edge="1" parent="1" source="hsY9H7-2oTvU6gEaKpXM-6" target="hsY9H7-2oTvU6gEaKpXM-64">
          <mxGeometry width="50" height="50" relative="1" as="geometry">
            <mxPoint x="170" y="290" as="sourcePoint" />
            <mxPoint x="56" y="315" as="targetPoint" />
          </mxGeometry>
        </mxCell>
        <mxCell id="hsY9H7-2oTvU6gEaKpXM-66" value="&lt;font style=&quot;font-size: 14px;&quot;&gt;Approval_Status&lt;/font&gt;" style="ellipse;whiteSpace=wrap;html=1;strokeWidth=1;rotation=-45;" vertex="1" parent="1">
          <mxGeometry x="270" y="355.79" width="110" height="34.21" as="geometry" />
        </mxCell>
        <mxCell id="hsY9H7-2oTvU6gEaKpXM-67" value="&lt;font style=&quot;font-size: 14px;&quot;&gt;Returned_Date&lt;/font&gt;" style="ellipse;whiteSpace=wrap;html=1;strokeWidth=1;rotation=15;" vertex="1" parent="1">
          <mxGeometry x="90" y="384.0048598135829" width="120" height="30" as="geometry" />
        </mxCell>
        <mxCell id="hsY9H7-2oTvU6gEaKpXM-70" value="" style="endArrow=none;html=1;rounded=0;entryX=0.566;entryY=-0.079;entryDx=0;entryDy=0;entryPerimeter=0;exitX=0.313;exitY=1;exitDx=0;exitDy=0;exitPerimeter=0;" edge="1" parent="1" source="hsY9H7-2oTvU6gEaKpXM-6" target="hsY9H7-2oTvU6gEaKpXM-67">
          <mxGeometry width="50" height="50" relative="1" as="geometry">
            <mxPoint x="219" y="280" as="sourcePoint" />
            <mxPoint x="110" y="343" as="targetPoint" />
          </mxGeometry>
        </mxCell>
        <mxCell id="hsY9H7-2oTvU6gEaKpXM-71" value="" style="endArrow=none;html=1;rounded=0;exitX=0.699;exitY=1.038;exitDx=0;exitDy=0;exitPerimeter=0;entryX=0.44;entryY=0.009;entryDx=0;entryDy=0;entryPerimeter=0;" edge="1" parent="1" source="hsY9H7-2oTvU6gEaKpXM-6" target="hsY9H7-2oTvU6gEaKpXM-66">
          <mxGeometry width="50" height="50" relative="1" as="geometry">
            <mxPoint x="234" y="348" as="sourcePoint" />
            <mxPoint x="320" y="290" as="targetPoint" />
          </mxGeometry>
        </mxCell>
        <mxCell id="hsY9H7-2oTvU6gEaKpXM-72" value="&lt;font style=&quot;font-size: 14px;&quot;&gt;Submission_Date&lt;/font&gt;" style="ellipse;whiteSpace=wrap;html=1;strokeWidth=1;rotation=60;" vertex="1" parent="1">
          <mxGeometry x="1009" y="160.00879468855757" width="120" height="30" as="geometry" />
        </mxCell>
        <mxCell id="hsY9H7-2oTvU6gEaKpXM-73" value="" style="endArrow=none;html=1;rounded=0;entryX=0.375;entryY=0.972;entryDx=0;entryDy=0;entryPerimeter=0;" edge="1" target="hsY9H7-2oTvU6gEaKpXM-72" parent="1">
          <mxGeometry width="50" height="50" relative="1" as="geometry">
            <mxPoint x="959" y="249.7239348749746" as="sourcePoint" />
            <mxPoint x="1019" y="229.7287946885575" as="targetPoint" />
          </mxGeometry>
        </mxCell>
        <mxCell id="hsY9H7-2oTvU6gEaKpXM-74" value="" style="endArrow=none;html=1;rounded=0;exitX=0.375;exitY=-0.029;exitDx=0;exitDy=0;entryX=0.5;entryY=1;entryDx=0;entryDy=0;exitPerimeter=0;" edge="1" target="hsY9H7-2oTvU6gEaKpXM-83" parent="1">
          <mxGeometry width="50" height="50" relative="1" as="geometry">
            <mxPoint x="924" y="248.7239348749746" as="sourcePoint" />
            <mxPoint x="904" y="208.72879468855757" as="targetPoint" />
          </mxGeometry>
        </mxCell>
        <mxCell id="hsY9H7-2oTvU6gEaKpXM-75" value="" style="endArrow=none;html=1;rounded=0;exitX=0;exitY=0;exitDx=0;exitDy=0;" edge="1" target="hsY9H7-2oTvU6gEaKpXM-84" parent="1">
          <mxGeometry width="50" height="50" relative="1" as="geometry">
            <mxPoint x="899" y="249.7239348749747" as="sourcePoint" />
            <mxPoint x="839" y="229.7239348749747" as="targetPoint" />
          </mxGeometry>
        </mxCell>
        <mxCell id="hsY9H7-2oTvU6gEaKpXM-76" value="" style="endArrow=none;html=1;rounded=0;entryX=0.537;entryY=0.002;entryDx=0;entryDy=0;entryPerimeter=0;exitX=0;exitY=0;exitDx=0;exitDy=0;" edge="1" target="hsY9H7-2oTvU6gEaKpXM-85" parent="1" source="hsY9H7-2oTvU6gEaKpXM-4">
          <mxGeometry width="50" height="50" relative="1" as="geometry">
            <mxPoint x="899" y="279.7239348749747" as="sourcePoint" />
            <mxPoint x="825" y="247.7239348749747" as="targetPoint" />
          </mxGeometry>
        </mxCell>
        <mxCell id="hsY9H7-2oTvU6gEaKpXM-77" value="" style="endArrow=none;html=1;rounded=0;entryX=0.584;entryY=-0.019;entryDx=0;entryDy=0;entryPerimeter=0;exitX=0.156;exitY=1;exitDx=0;exitDy=0;exitPerimeter=0;" edge="1" target="hsY9H7-2oTvU6gEaKpXM-86" parent="1">
          <mxGeometry width="50" height="50" relative="1" as="geometry">
            <mxPoint x="918" y="279.7239348749747" as="sourcePoint" />
            <mxPoint x="795" y="314.7239348749747" as="targetPoint" />
          </mxGeometry>
        </mxCell>
        <mxCell id="hsY9H7-2oTvU6gEaKpXM-78" value="" style="endArrow=none;html=1;rounded=0;entryX=0.566;entryY=-0.079;entryDx=0;entryDy=0;entryPerimeter=0;exitX=0.313;exitY=1;exitDx=0;exitDy=0;exitPerimeter=0;" edge="1" target="hsY9H7-2oTvU6gEaKpXM-87" parent="1">
          <mxGeometry width="50" height="50" relative="1" as="geometry">
            <mxPoint x="937" y="279.7239348749747" as="sourcePoint" />
            <mxPoint x="849" y="342.7239348749747" as="targetPoint" />
          </mxGeometry>
        </mxCell>
        <mxCell id="hsY9H7-2oTvU6gEaKpXM-79" value="" style="endArrow=none;html=1;rounded=0;exitX=0.699;exitY=1.038;exitDx=0;exitDy=0;exitPerimeter=0;entryX=0.44;entryY=0.009;entryDx=0;entryDy=0;entryPerimeter=0;" edge="1" target="hsY9H7-2oTvU6gEaKpXM-80" parent="1">
          <mxGeometry width="50" height="50" relative="1" as="geometry">
            <mxPoint x="983" y="280.7239348749747" as="sourcePoint" />
            <mxPoint x="1059" y="289.7239348749747" as="targetPoint" />
          </mxGeometry>
        </mxCell>
        <mxCell id="hsY9H7-2oTvU6gEaKpXM-80" value="&lt;font style=&quot;font-size: 14px;&quot;&gt;Approval_Status&lt;/font&gt;" style="ellipse;whiteSpace=wrap;html=1;strokeWidth=1;rotation=-45;" vertex="1" parent="1">
          <mxGeometry x="1000" y="355.79393487497464" width="110" height="34.21" as="geometry" />
        </mxCell>
        <mxCell id="hsY9H7-2oTvU6gEaKpXM-81" value="" style="endArrow=none;html=1;rounded=0;exitX=1;exitY=0.5;exitDx=0;exitDy=0;" edge="1" target="hsY9H7-2oTvU6gEaKpXM-82" parent="1" source="hsY9H7-2oTvU6gEaKpXM-4">
          <mxGeometry width="50" height="50" relative="1" as="geometry">
            <mxPoint x="1005" y="250.7239348749747" as="sourcePoint" />
            <mxPoint x="1079" y="239.7287946885575" as="targetPoint" />
          </mxGeometry>
        </mxCell>
        <mxCell id="hsY9H7-2oTvU6gEaKpXM-82" value="&lt;font style=&quot;font-size: 14px;&quot;&gt;Receiver&lt;/font&gt;" style="ellipse;whiteSpace=wrap;html=1;strokeWidth=1;rotation=90;" vertex="1" parent="1">
          <mxGeometry x="1059" y="260.0039348749747" width="90" height="30" as="geometry" />
        </mxCell>
        <mxCell id="hsY9H7-2oTvU6gEaKpXM-83" value="&lt;font style=&quot;font-size: 14px;&quot;&gt;Document_ID&lt;/font&gt;" style="ellipse;whiteSpace=wrap;html=1;strokeWidth=1;rotation=15;" vertex="1" parent="1">
          <mxGeometry x="920" y="100.00393487497468" width="110" height="30" as="geometry" />
        </mxCell>
        <mxCell id="hsY9H7-2oTvU6gEaKpXM-84" value="&lt;font style=&quot;font-size: 14px;&quot;&gt;Task_Name&lt;/font&gt;" style="ellipse;whiteSpace=wrap;html=1;strokeWidth=1;rotation=-10;" vertex="1" parent="1">
          <mxGeometry x="820" y="100.00393487497468" width="100" height="30" as="geometry" />
        </mxCell>
        <mxCell id="hsY9H7-2oTvU6gEaKpXM-85" value="&lt;font style=&quot;font-size: 14px;&quot;&gt;Receiving_Date&lt;/font&gt;" style="ellipse;whiteSpace=wrap;html=1;strokeWidth=1;rotation=-52;" vertex="1" parent="1">
          <mxGeometry x="719.67" y="159.9987946885576" width="120" height="30" as="geometry" />
        </mxCell>
        <mxCell id="hsY9H7-2oTvU6gEaKpXM-86" value="&lt;font style=&quot;font-size: 14px;&quot;&gt;Comments&lt;/font&gt;" style="ellipse;whiteSpace=wrap;html=1;strokeWidth=1;rotation=30;" vertex="1" parent="1">
          <mxGeometry x="750" y="310.0039348749747" width="90" height="30" as="geometry" />
        </mxCell>
        <mxCell id="hsY9H7-2oTvU6gEaKpXM-87" value="&lt;font style=&quot;font-size: 14px;&quot;&gt;Returned_Date&lt;/font&gt;" style="ellipse;whiteSpace=wrap;html=1;strokeWidth=1;rotation=15;" vertex="1" parent="1">
          <mxGeometry x="820" y="369.9987946885576" width="120" height="30" as="geometry" />
        </mxCell>
        <mxCell id="hsY9H7-2oTvU6gEaKpXM-88" value="&lt;font style=&quot;font-size: 14px;&quot;&gt;Task_Name&lt;/font&gt;" style="ellipse;whiteSpace=wrap;html=1;strokeWidth=1;rotation=-10;" vertex="1" parent="1">
          <mxGeometry x="479.99984982364043" y="337.5039348749747" width="100" height="30" as="geometry" />
        </mxCell>
        <mxCell id="hsY9H7-2oTvU6gEaKpXM-89" value="&lt;font style=&quot;font-size: 14px;&quot;&gt;Receiving_Date&lt;/font&gt;" style="ellipse;whiteSpace=wrap;html=1;strokeWidth=1;rotation=-52;" vertex="1" parent="1">
          <mxGeometry x="379.9998498236404" y="389.9987946885576" width="120" height="30" as="geometry" />
        </mxCell>
        <mxCell id="hsY9H7-2oTvU6gEaKpXM-90" value="&lt;font style=&quot;font-size: 14px;&quot;&gt;Document_ID&lt;/font&gt;" style="ellipse;whiteSpace=wrap;html=1;strokeWidth=1;rotation=15;" vertex="1" parent="1">
          <mxGeometry x="579.9998498236404" y="340.0039348749747" width="110" height="30" as="geometry" />
        </mxCell>
        <mxCell id="hsY9H7-2oTvU6gEaKpXM-91" value="&lt;font style=&quot;font-size: 14px;&quot;&gt;Submission_Date&lt;/font&gt;" style="ellipse;whiteSpace=wrap;html=1;strokeWidth=1;rotation=60;" vertex="1" parent="1">
          <mxGeometry x="670" y="390" width="116.29" height="30" as="geometry" />
        </mxCell>
        <mxCell id="hsY9H7-2oTvU6gEaKpXM-92" value="&lt;font style=&quot;font-size: 14px;&quot;&gt;Receiver&lt;/font&gt;" style="ellipse;whiteSpace=wrap;html=1;strokeWidth=1;rotation=-30;" vertex="1" parent="1">
          <mxGeometry x="640.0000000000001" y="540" width="90" height="30" as="geometry" />
        </mxCell>
        <mxCell id="hsY9H7-2oTvU6gEaKpXM-93" value="&lt;font style=&quot;font-size: 14px;&quot;&gt;Approval_Status&lt;/font&gt;" style="ellipse;whiteSpace=wrap;html=1;strokeWidth=1;rotation=-110;" vertex="1" parent="1">
          <mxGeometry x="373.9998498236404" y="505.7939348749747" width="110" height="34.21" as="geometry" />
        </mxCell>
        <mxCell id="hsY9H7-2oTvU6gEaKpXM-95" value="&lt;font style=&quot;font-size: 14px;&quot;&gt;Comments&lt;/font&gt;" style="ellipse;whiteSpace=wrap;html=1;strokeWidth=1;rotation=90;" vertex="1" parent="1">
          <mxGeometry x="709.9998498236404" y="500.0039348749747" width="90" height="30" as="geometry" />
        </mxCell>
        <mxCell id="hsY9H7-2oTvU6gEaKpXM-96" value="" style="endArrow=none;html=1;rounded=0;entryX=0.5;entryY=1;entryDx=0;entryDy=0;exitX=1;exitY=1;exitDx=0;exitDy=0;" edge="1" target="hsY9H7-2oTvU6gEaKpXM-95" parent="1" source="hsY9H7-2oTvU6gEaKpXM-3">
          <mxGeometry width="50" height="50" relative="1" as="geometry">
            <mxPoint x="567.0898498236404" y="497.44393487497473" as="sourcePoint" />
            <mxPoint x="444.0898498236404" y="532.4439348749747" as="targetPoint" />
          </mxGeometry>
        </mxCell>
        <mxCell id="hsY9H7-2oTvU6gEaKpXM-97" value="" style="endArrow=none;html=1;rounded=0;exitX=0;exitY=0.25;exitDx=0;exitDy=0;entryX=0.555;entryY=0.991;entryDx=0;entryDy=0;entryPerimeter=0;" edge="1" target="hsY9H7-2oTvU6gEaKpXM-89" parent="1" source="hsY9H7-2oTvU6gEaKpXM-3">
          <mxGeometry width="50" height="50" relative="1" as="geometry">
            <mxPoint x="529.0898498236404" y="467.72" as="sourcePoint" />
            <mxPoint x="450" y="400" as="targetPoint" />
          </mxGeometry>
        </mxCell>
        <mxCell id="hsY9H7-2oTvU6gEaKpXM-98" value="" style="endArrow=none;html=1;rounded=0;exitX=0.25;exitY=0;exitDx=0;exitDy=0;" edge="1" target="hsY9H7-2oTvU6gEaKpXM-88" parent="1" source="hsY9H7-2oTvU6gEaKpXM-3">
          <mxGeometry width="50" height="50" relative="1" as="geometry">
            <mxPoint x="548.0898498236404" y="467.44393487497473" as="sourcePoint" />
            <mxPoint x="488.0898498236404" y="447.44393487497473" as="targetPoint" />
          </mxGeometry>
        </mxCell>
        <mxCell id="hsY9H7-2oTvU6gEaKpXM-99" value="" style="endArrow=none;html=1;rounded=0;exitX=0.5;exitY=0;exitDx=0;exitDy=0;entryX=0.5;entryY=1;entryDx=0;entryDy=0;" edge="1" target="hsY9H7-2oTvU6gEaKpXM-90" parent="1" source="hsY9H7-2oTvU6gEaKpXM-3">
          <mxGeometry width="50" height="50" relative="1" as="geometry">
            <mxPoint x="573.0898498236404" y="466.4439348749746" as="sourcePoint" />
            <mxPoint x="553.0898498236404" y="426.44879468855765" as="targetPoint" />
          </mxGeometry>
        </mxCell>
        <mxCell id="hsY9H7-2oTvU6gEaKpXM-100" value="" style="endArrow=none;html=1;rounded=0;entryX=0.375;entryY=0.972;entryDx=0;entryDy=0;entryPerimeter=0;exitX=1;exitY=0.25;exitDx=0;exitDy=0;" edge="1" target="hsY9H7-2oTvU6gEaKpXM-91" parent="1" source="hsY9H7-2oTvU6gEaKpXM-3">
          <mxGeometry width="50" height="50" relative="1" as="geometry">
            <mxPoint x="640" y="440" as="sourcePoint" />
            <mxPoint x="668.0898498236404" y="447.44879468855754" as="targetPoint" />
          </mxGeometry>
        </mxCell>
        <mxCell id="hsY9H7-2oTvU6gEaKpXM-101" value="" style="endArrow=none;html=1;rounded=0;exitX=0.75;exitY=1;exitDx=0;exitDy=0;entryX=0.5;entryY=0;entryDx=0;entryDy=0;" edge="1" target="hsY9H7-2oTvU6gEaKpXM-92" parent="1" source="hsY9H7-2oTvU6gEaKpXM-3">
          <mxGeometry width="50" height="50" relative="1" as="geometry">
            <mxPoint x="649.0898498236404" y="482.72" as="sourcePoint" />
            <mxPoint x="674.5883916847633" y="548.7397556618537" as="targetPoint" />
          </mxGeometry>
        </mxCell>
        <mxCell id="hsY9H7-2oTvU6gEaKpXM-102" value="" style="endArrow=none;html=1;rounded=0;entryX=0.5;entryY=1;entryDx=0;entryDy=0;" edge="1" target="hsY9H7-2oTvU6gEaKpXM-93" parent="1">
          <mxGeometry width="50" height="50" relative="1" as="geometry">
            <mxPoint x="520" y="480" as="sourcePoint" />
            <mxPoint x="445.07329210218336" y="517.0486803233891" as="targetPoint" />
          </mxGeometry>
        </mxCell>
        <mxCell id="hsY9H7-2oTvU6gEaKpXM-104" value="&lt;font style=&quot;font-size: 14px;&quot;&gt;Document_ID&lt;/font&gt;" style="ellipse;whiteSpace=wrap;html=1;strokeWidth=1;rotation=30;" vertex="1" parent="1">
          <mxGeometry x="610" y="590" width="100" height="30" as="geometry" />
        </mxCell>
        <mxCell id="hsY9H7-2oTvU6gEaKpXM-105" value="&lt;font style=&quot;font-size: 14px;&quot;&gt;Task_Name&lt;/font&gt;" style="ellipse;whiteSpace=wrap;html=1;strokeWidth=1;rotation=-10;" vertex="1" parent="1">
          <mxGeometry x="480" y="590" width="82" height="30" as="geometry" />
        </mxCell>
        <mxCell id="hsY9H7-2oTvU6gEaKpXM-106" value="&lt;font style=&quot;font-size: 14px;&quot;&gt;Completion_Date&lt;/font&gt;" style="ellipse;whiteSpace=wrap;html=1;strokeWidth=1;rotation=-45;" vertex="1" parent="1">
          <mxGeometry x="374" y="640" width="110" height="30" as="geometry" />
        </mxCell>
        <mxCell id="hsY9H7-2oTvU6gEaKpXM-107" value="&lt;font style=&quot;font-size: 14px;&quot;&gt;Inspection_Date&lt;/font&gt;" style="ellipse;whiteSpace=wrap;html=1;strokeWidth=1;rotation=75;" vertex="1" parent="1">
          <mxGeometry x="359.86" y="739.9999999999999" width="108.46" height="30" as="geometry" />
        </mxCell>
        <mxCell id="hsY9H7-2oTvU6gEaKpXM-108" value="&lt;font style=&quot;font-size: 14px;&quot;&gt;Inspector&lt;/font&gt;" style="ellipse;whiteSpace=wrap;html=1;strokeWidth=1;rotation=-5;" vertex="1" parent="1">
          <mxGeometry x="444.99589460030916" y="790.52" width="90" height="30" as="geometry" />
        </mxCell>
        <mxCell id="hsY9H7-2oTvU6gEaKpXM-109" value="&lt;font style=&quot;font-size: 14px;&quot;&gt;Testing_Date&lt;/font&gt;" style="ellipse;whiteSpace=wrap;html=1;strokeWidth=1;rotation=-30;" vertex="1" parent="1">
          <mxGeometry x="672.99" y="760" width="90.67" height="30.52" as="geometry" />
        </mxCell>
        <mxCell id="hsY9H7-2oTvU6gEaKpXM-110" value="&lt;font style=&quot;font-size: 14px;&quot;&gt;Yes_No_Status&lt;/font&gt;" style="ellipse;whiteSpace=wrap;html=1;strokeWidth=1;rotation=60;" vertex="1" parent="1">
          <mxGeometry x="669.9958946003092" y="680" width="116.29" height="30" as="geometry" />
        </mxCell>
        <mxCell id="hsY9H7-2oTvU6gEaKpXM-111" value="" style="endArrow=none;html=1;rounded=0;entryX=0.375;entryY=0.972;entryDx=0;entryDy=0;entryPerimeter=0;exitX=1;exitY=0.5;exitDx=0;exitDy=0;" edge="1" target="hsY9H7-2oTvU6gEaKpXM-110" parent="1" source="hsY9H7-2oTvU6gEaKpXM-2">
          <mxGeometry width="50" height="50" relative="1" as="geometry">
            <mxPoint x="640" y="741" as="sourcePoint" />
            <mxPoint x="668.0857444239496" y="729.9487946885574" as="targetPoint" />
          </mxGeometry>
        </mxCell>
        <mxCell id="hsY9H7-2oTvU6gEaKpXM-112" value="" style="endArrow=none;html=1;rounded=0;entryX=0.452;entryY=1.078;entryDx=0;entryDy=0;exitX=0.651;exitY=0.01;exitDx=0;exitDy=0;exitPerimeter=0;entryPerimeter=0;" edge="1" target="hsY9H7-2oTvU6gEaKpXM-104" parent="1">
          <mxGeometry width="50" height="50" relative="1" as="geometry">
            <mxPoint x="600.1199999999999" y="680.3" as="sourcePoint" />
            <mxPoint x="633.3240418066391" y="609.1477084709327" as="targetPoint" />
          </mxGeometry>
        </mxCell>
        <mxCell id="hsY9H7-2oTvU6gEaKpXM-113" value="" style="endArrow=none;html=1;rounded=0;exitX=0.25;exitY=0;exitDx=0;exitDy=0;" edge="1" target="hsY9H7-2oTvU6gEaKpXM-105" parent="1" source="hsY9H7-2oTvU6gEaKpXM-2">
          <mxGeometry width="50" height="50" relative="1" as="geometry">
            <mxPoint x="549.9958946003092" y="732.5" as="sourcePoint" />
            <mxPoint x="488.0857444239495" y="729.9439348749747" as="targetPoint" />
          </mxGeometry>
        </mxCell>
        <mxCell id="hsY9H7-2oTvU6gEaKpXM-114" value="" style="endArrow=none;html=1;rounded=0;exitX=0;exitY=0.25;exitDx=0;exitDy=0;entryX=0.5;entryY=1;entryDx=0;entryDy=0;" edge="1" target="hsY9H7-2oTvU6gEaKpXM-106" parent="1" source="hsY9H7-2oTvU6gEaKpXM-2">
          <mxGeometry width="50" height="50" relative="1" as="geometry">
            <mxPoint x="519.9958946003092" y="740.5" as="sourcePoint" />
            <mxPoint x="450" y="680" as="targetPoint" />
          </mxGeometry>
        </mxCell>
        <mxCell id="hsY9H7-2oTvU6gEaKpXM-115" value="" style="endArrow=none;html=1;rounded=0;entryX=0.584;entryY=-0.019;entryDx=0;entryDy=0;entryPerimeter=0;exitX=0;exitY=1;exitDx=0;exitDy=0;" edge="1" target="hsY9H7-2oTvU6gEaKpXM-107" parent="1" source="hsY9H7-2oTvU6gEaKpXM-2">
          <mxGeometry width="50" height="50" relative="1" as="geometry">
            <mxPoint x="519.9958946003092" y="762.5" as="sourcePoint" />
            <mxPoint x="444.0857444239495" y="814.9439348749747" as="targetPoint" />
          </mxGeometry>
        </mxCell>
        <mxCell id="hsY9H7-2oTvU6gEaKpXM-116" value="" style="endArrow=none;html=1;rounded=0;exitX=0.25;exitY=1;exitDx=0;exitDy=0;" edge="1" target="hsY9H7-2oTvU6gEaKpXM-108" parent="1" source="hsY9H7-2oTvU6gEaKpXM-2">
          <mxGeometry width="50" height="50" relative="1" as="geometry">
            <mxPoint x="549.9958946003092" y="762.5" as="sourcePoint" />
            <mxPoint x="728.0857444239496" y="739.9487946885574" as="targetPoint" />
          </mxGeometry>
        </mxCell>
        <mxCell id="hsY9H7-2oTvU6gEaKpXM-117" value="" style="endArrow=none;html=1;rounded=0;exitX=1;exitY=1;exitDx=0;exitDy=0;entryX=0.44;entryY=0.009;entryDx=0;entryDy=0;entryPerimeter=0;" edge="1" target="hsY9H7-2oTvU6gEaKpXM-109" parent="1" source="hsY9H7-2oTvU6gEaKpXM-2">
          <mxGeometry width="50" height="50" relative="1" as="geometry">
            <mxPoint x="624.9958946003092" y="761.5" as="sourcePoint" />
            <mxPoint x="708.0857444239496" y="789.9439348749747" as="targetPoint" />
          </mxGeometry>
        </mxCell>
        <mxCell id="hsY9H7-2oTvU6gEaKpXM-119" value="&lt;font style=&quot;font-size: 14px;&quot;&gt;Construction_Date&lt;/font&gt;" style="ellipse;whiteSpace=wrap;html=1;strokeWidth=1;rotation=1;" vertex="1" parent="1">
          <mxGeometry x="542.99" y="790.52" width="130" height="30" as="geometry" />
        </mxCell>
        <mxCell id="hsY9H7-2oTvU6gEaKpXM-120" value="" style="endArrow=none;html=1;rounded=0;entryX=0.5;entryY=0;entryDx=0;entryDy=0;exitX=0.5;exitY=1;exitDx=0;exitDy=0;" edge="1" parent="1" target="hsY9H7-2oTvU6gEaKpXM-119" source="hsY9H7-2oTvU6gEaKpXM-2">
          <mxGeometry width="50" height="50" relative="1" as="geometry">
            <mxPoint x="497.69000000000005" y="821.5799999999999" as="sourcePoint" />
            <mxPoint x="581.6157444239495" y="818.3787946885575" as="targetPoint" />
          </mxGeometry>
        </mxCell>
      </root>
    </mxGraphModel>
  </diagram>
</mxfile>
